<svg width="41" height="46" viewBox="0 0 41 46" fill="none" xmlns="http://www.w3.org/2000/svg">
<path d="M20.5 10.35C22.4418 10.35 24.304 10.9558 25.677 12.0341C27.0501 13.1125 27.8214 14.575 27.8214 16.1C27.8214 16.8551 27.6321 17.6028 27.2641 18.3004C26.8962 18.9981 26.3569 19.6319 25.677 20.1659C24.9972 20.6998 24.1901 21.1233 23.3018 21.4123C22.4135 21.7013 21.4615 21.85 20.5 21.85C18.5582 21.85 16.696 21.2442 15.323 20.1659C13.9499 19.0875 13.1786 17.625 13.1786 16.1C13.1786 14.575 13.9499 13.1125 15.323 12.0341C16.696 10.9558 18.5582 10.35 20.5 10.35ZM20.5 0C25.9369 0 31.1512 1.69624 34.9957 4.71558C38.8402 7.73492 41 11.83 41 16.1C41 28.175 20.5 46 20.5 46C20.5 46 0 28.175 0 16.1C0 11.83 2.15981 7.73492 6.00431 4.71558C9.84881 1.69624 15.0631 0 20.5 0ZM20.5 4.6C16.6165 4.6 12.892 5.8116 10.1459 7.96827C7.39987 10.1249 5.85714 13.05 5.85714 16.1C5.85714 18.4 5.85714 23 20.5 38.433C35.1429 23 35.1429 18.4 35.1429 16.1C35.1429 13.05 33.6001 10.1249 30.8541 7.96827C28.108 5.8116 24.3835 4.6 20.5 4.6Z" fill="white"/>
</svg>
