<svg width="55" height="59" viewBox="0 0 55 59" fill="none" xmlns="http://www.w3.org/2000/svg">
<path d="M29.1043 47.4456C29.5245 46.9949 29.7445 46.4213 29.7643 45.7248C29.7827 45.0283 29.5818 44.4547 29.1616 44.004L17.9325 31.9581H43.5418C44.1911 31.9581 44.7358 31.7221 45.1758 31.2501C45.6143 30.7798 45.8335 30.1963 45.8335 29.4998C45.8335 28.8033 45.6143 28.219 45.1758 27.747C44.7358 27.2766 44.1911 27.0415 43.5418 27.0415H17.9325L29.1616 14.9956C29.5818 14.5449 29.7827 13.9713 29.7643 13.2748C29.7445 12.5783 29.5245 12.0047 29.1043 11.554C28.6842 11.1033 28.1495 10.8779 27.5002 10.8779C26.8509 10.8779 26.3161 11.1033 25.896 11.554L10.771 27.779C10.5418 27.9838 10.3791 28.2395 10.2829 28.546C10.1881 28.8541 10.1408 29.172 10.1408 29.4998C10.1408 29.8276 10.1881 30.1349 10.2829 30.4217C10.3791 30.7085 10.5418 30.9748 10.771 31.2206L25.896 47.4456C26.3161 47.8963 26.8509 48.1217 27.5002 48.1217C28.1495 48.1217 28.6842 47.8963 29.1043 47.4456Z" fill="#211B48"/>
</svg>
