<svg width="59" height="59" viewBox="0 0 59 59" fill="none" xmlns="http://www.w3.org/2000/svg">
<path d="M27.7791 47.4456C27.3284 46.9949 27.0924 46.4213 27.0711 45.7248C27.0514 45.0283 27.2669 44.4547 27.7176 44.004L39.7635 31.9581H12.2916C11.5951 31.9581 11.0108 31.7221 10.5388 31.2501C10.0684 30.7798 9.83325 30.1963 9.83325 29.4998C9.83325 28.8033 10.0684 28.219 10.5388 27.747C11.0108 27.2766 11.5951 27.0415 12.2916 27.0415H39.7635L27.7176 14.9956C27.2669 14.5449 27.0514 13.9713 27.0711 13.2748C27.0924 12.5783 27.3284 12.0047 27.7791 11.554C28.2298 11.1033 28.8034 10.8779 29.4999 10.8779C30.1964 10.8779 30.7701 11.1033 31.2208 11.554L47.4457 27.779C47.6916 27.9838 47.8661 28.2395 47.9694 28.546C48.071 28.8541 48.1218 29.172 48.1218 29.4998C48.1218 29.8276 48.071 30.1349 47.9694 30.4217C47.8661 30.7085 47.6916 30.9748 47.4457 31.2206L31.2208 47.4456C30.7701 47.8963 30.1964 48.1217 29.4999 48.1217C28.8034 48.1217 28.2298 47.8963 27.7791 47.4456Z" fill="white"/>
</svg>
