<svg width="245" height="64" viewBox="0 0 245 64" fill="none" xmlns="http://www.w3.org/2000/svg">
<path d="M82.758 41.864C80.2193 41.1387 78.2587 39.722 76.876 37.614C75.516 35.506 74.836 33.0807 74.836 30.338C74.836 28.0713 75.312 26.0313 76.264 24.218C77.216 22.382 78.5533 20.9427 80.276 19.9C81.9987 18.8573 83.9707 18.336 86.192 18.336C88.436 18.336 90.4193 18.8687 92.142 19.934C93.8873 20.9767 95.236 22.416 96.188 24.252C97.14 26.088 97.616 28.128 97.616 30.372C97.616 32.6387 97.1287 34.6787 96.154 36.492C95.202 38.3053 93.8533 39.7333 92.108 40.776C90.3853 41.796 88.4133 42.306 86.192 42.306H85.478L83.982 44.516L86.124 45.23C87.416 45.6607 88.5947 45.876 89.66 45.876C90.204 45.876 90.7027 45.7853 91.156 45.604C91.6093 45.4453 92.21 45.094 92.958 44.55L94.182 46.692C93.23 47.3947 92.448 47.848 91.836 48.052C91.2467 48.2787 90.5893 48.392 89.864 48.392C89.0933 48.392 88.368 48.3353 87.688 48.222C87.008 48.1087 86.2713 47.916 85.478 47.644L82.486 46.658L81.024 48.766L78.984 47.168L82.758 41.864ZM86.192 39.79C87.96 39.79 89.49 39.382 90.782 38.566C92.0967 37.75 93.094 36.628 93.774 35.2C94.4767 33.7493 94.828 32.1173 94.828 30.304C94.828 28.5133 94.4767 26.904 93.774 25.476C93.0713 24.0253 92.074 22.892 90.782 22.076C89.49 21.26 87.9713 20.852 86.226 20.852C84.4807 20.852 82.9507 21.26 81.636 22.076C80.344 22.892 79.3467 24.014 78.644 25.442C77.964 26.87 77.624 28.4907 77.624 30.304C77.624 32.1173 77.964 33.738 78.644 35.166C79.324 36.594 80.31 37.7273 81.602 38.566C82.894 39.382 84.424 39.79 86.192 39.79ZM111.397 42.34C109.561 42.34 107.952 41.932 106.569 41.116C105.186 40.2773 104.121 39.1327 103.373 37.682C102.625 36.2313 102.251 34.6107 102.251 32.82V18.676H105.039V32.82C105.039 34.2253 105.311 35.4607 105.855 36.526C106.399 37.5913 107.147 38.4187 108.099 39.008C109.074 39.5747 110.196 39.858 111.465 39.858C113.414 39.858 114.967 39.212 116.123 37.92C117.302 36.628 117.891 34.928 117.891 32.82V18.676H120.679V32.82C120.679 34.7013 120.282 36.3673 119.489 37.818C118.696 39.246 117.596 40.3567 116.191 41.15C114.786 41.9433 113.188 42.34 111.397 42.34ZM126.767 18.676H129.555V42.034H126.767V18.676ZM134.327 41.082L145.921 21.328H134.633V18.744H149.967V19.594L138.373 39.45H150.647V42.034H134.327V41.082ZM155.355 18.676H158.143V39.45H169.601V42.034H155.355V18.676ZM181.699 18.03H182.821L192.851 42.034H189.893L186.697 34.52H177.823L174.695 42.034H171.737L181.699 18.03ZM182.719 24.728L182.447 23.844L182.243 23.062L182.005 23.81L181.733 24.728L178.877 32.004H185.609L182.719 24.728ZM197.157 18.336H198.347L212.933 36.56L213.409 37.41L213.375 36.458L213.341 18.642H216.095V42.034H214.667L212.695 40.096L201.101 26.156L199.775 24.388L199.945 26.632V42.034H197.157V18.336ZM231.769 18.506C233.877 18.642 235.747 19.2313 237.379 20.274C239.033 21.3167 240.314 22.722 241.221 24.49C242.127 26.2353 242.581 28.196 242.581 30.372C242.581 32.684 242.071 34.7467 241.051 36.56C240.053 38.3733 238.659 39.79 236.869 40.81C235.078 41.83 233.038 42.34 230.749 42.34H229.049C228.867 42.34 228.471 42.34 227.859 42.34C227.247 42.34 226.159 42.272 224.595 42.136L222.691 41.966V18.472L231.769 18.506ZM229.661 39.79C232.925 39.79 235.429 38.9853 237.175 37.376C238.92 35.7667 239.793 33.466 239.793 30.474C239.793 27.6633 239.045 25.4307 237.549 23.776C236.075 22.1213 234.024 21.226 231.395 21.09H225.479V39.62C227.02 39.7333 228.414 39.79 229.661 39.79Z" fill="white"/>
<path d="M37.9292 33.7587C50.9531 33.7405 61.5376 44.2836 61.5702 57.3075L61.5819 61.9669V61.9669C48.558 61.9851 37.9735 51.442 37.9409 38.4181L37.9292 33.7587V33.7587Z" fill="#279BD7"/>
<g filter="url(#filter0_d_147_2)">
<ellipse cx="30" cy="27.9861" rx="26" ry="27.9861" fill="#FD4285"/>
</g>
<ellipse cx="36" cy="27.9861" rx="11" ry="19.375" fill="#1E1F29"/>
<defs>
<filter id="filter0_d_147_2" x="0" y="0" width="60" height="63.9722" filterUnits="userSpaceOnUse" color-interpolation-filters="sRGB">
<feFlood flood-opacity="0" result="BackgroundImageFix"/>
<feColorMatrix in="SourceAlpha" type="matrix" values="0 0 0 0 0 0 0 0 0 0 0 0 0 0 0 0 0 0 127 0" result="hardAlpha"/>
<feOffset dy="4"/>
<feGaussianBlur stdDeviation="2"/>
<feComposite in2="hardAlpha" operator="out"/>
<feColorMatrix type="matrix" values="0 0 0 0 0 0 0 0 0 0 0 0 0 0 0 0 0 0 0.25 0"/>
<feBlend mode="normal" in2="BackgroundImageFix" result="effect1_dropShadow_147_2"/>
<feBlend mode="normal" in="SourceGraphic" in2="effect1_dropShadow_147_2" result="shape"/>
</filter>
</defs>
</svg>
