<svg width="1094" height="130" viewBox="0 0 1094 130" fill="none" xmlns="http://www.w3.org/2000/svg">
<path d="M246.605 127.854C246.605 111.716 243.427 95.7357 237.251 80.8261C231.075 65.9166 222.023 52.3694 210.612 40.9581C199.201 29.5469 185.653 20.4949 170.744 14.3192C155.834 8.14345 139.854 4.96484 123.716 4.96484L123.716 127.854H246.605Z" fill="#3748E0"/>
<path d="M360.805 67.0299C360.805 101.307 333.017 129.095 298.74 129.095C264.462 129.095 236.675 101.307 236.675 67.0299C236.675 32.7523 264.462 4.96484 298.74 4.96484C333.017 4.96484 360.805 32.7523 360.805 67.0299Z" fill="#7E53FB"/>
<circle cx="783.675" cy="67.0299" r="62.0651" fill="#7E53FB"/>
<path d="M0 74.9648C0 36.3049 31.3401 4.96484 70 4.96484H124.13V59.095C124.13 97.7549 92.79 129.095 54.1301 129.095H0V74.9648Z" fill="#FF5F8F"/>
<path d="M484.935 74.9648C484.935 36.3049 516.275 4.96484 554.935 4.96484H609.065V59.095C609.065 97.7549 577.725 129.095 539.065 129.095H484.935V74.9648Z" fill="#FF8C4B"/>
<path d="M971.87 2H1092V122.13H971.87V2Z" stroke="#3748E0" stroke-width="4"/>
<circle cx="640.511" cy="95.1668" r="28.9637" fill="#548EFF"/>
<circle cx="783.675" cy="40.5494" r="7.44781" fill="white"/>
<circle cx="783.448" cy="95.4478" r="7.44781" fill="white"/>
<circle cx="447.696" cy="41.3768" r="24.826" fill="#90F16E"/>
<circle cx="932.631" cy="41.3768" r="24.826" fill="#FFE76B"/>
<rect x="257.363" y="63.7197" width="82.7534" height="5.79274" rx="2.89637" fill="white"/>
<rect x="742.298" y="63.7197" width="82.7534" height="5.79274" rx="2.89637" fill="white"/>
<rect width="35.584" height="3.31014" rx="1.65507" transform="matrix(1 0 0 -1 429.49 43.0312)" fill="white"/>
<rect width="35.584" height="3.31014" rx="1.65507" transform="matrix(1 0 0 -1 914.425 43.0312)" fill="white"/>
<rect x="301.222" y="25.6533" width="82.7534" height="5.79274" rx="2.89637" transform="rotate(90 301.222 25.6533)" fill="white"/>
<path d="M1091.93 1.65527H972.353L1091.93 121.234V1.65527Z" fill="#3748E0"/>
<circle cx="28.9637" cy="99.3045" r="28.9637" fill="#FFE76B"/>
<path d="M171.713 41.377L176.092 62.8625L193.256 49.218L182.8 68.4913L204.719 69.0722L184.321 77.1151L200.738 91.6496L179.942 84.6987L183.176 106.386L171.713 87.6937L160.251 106.386L163.485 84.6987L142.688 91.6496L159.106 77.1151L138.707 69.0722L160.627 68.4913L150.17 49.218L167.335 62.8625L171.713 41.377Z" fill="#ACFF8F"/>
<mask id="path-20-inside-1_189_24" fill="white">
<path d="M484.935 66.2027C484.935 78.4781 481.295 90.4777 474.475 100.684C467.655 110.891 457.962 118.846 446.621 123.543C435.28 128.241 422.801 129.47 410.762 127.075C398.722 124.68 387.663 118.769 378.983 110.089C370.303 101.409 364.392 90.3505 361.997 78.311C359.603 66.2716 360.832 53.7924 365.529 42.4515C370.227 31.1106 378.182 21.4173 388.388 14.5975C398.595 7.77775 410.595 4.1377 422.87 4.1377L422.87 66.2027H484.935Z"/>
</mask>
<path d="M484.935 66.2027C484.935 78.4781 481.295 90.4777 474.475 100.684C467.655 110.891 457.962 118.846 446.621 123.543C435.28 128.241 422.801 129.47 410.762 127.075C398.722 124.68 387.663 118.769 378.983 110.089C370.303 101.409 364.392 90.3505 361.997 78.311C359.603 66.2716 360.832 53.7924 365.529 42.4515C370.227 31.1106 378.182 21.4173 388.388 14.5975C398.595 7.77775 410.595 4.1377 422.87 4.1377L422.87 66.2027H484.935Z" stroke="#6E6BFF" stroke-width="8" mask="url(#path-20-inside-1_189_24)"/>
<path d="M720.338 81.5915C726.158 95.6422 729.272 110.659 729.524 125.854H610.651L610.651 6.98139C625.846 7.23278 640.863 10.347 654.914 16.167C669.58 22.2422 682.907 31.1468 694.133 42.3724C705.358 53.5979 714.263 66.9246 720.338 81.5915Z" stroke="#FF769F" stroke-width="4"/>
<mask id="path-22-inside-2_189_24" fill="white">
<path d="M969.87 66.2027C969.87 78.4781 966.23 90.4777 959.41 100.684C952.59 110.891 942.897 118.846 931.556 123.543C920.215 128.241 907.736 129.47 895.697 127.075C883.657 124.68 872.598 118.769 863.918 110.089C855.238 101.409 849.327 90.3505 846.932 78.311C844.538 66.2716 845.767 53.7924 850.464 42.4515C855.162 31.1106 863.117 21.4173 873.323 14.5975C883.53 7.77775 895.529 4.1377 907.805 4.1377L907.805 66.2027H969.87Z"/>
</mask>
<path d="M969.87 66.2027C969.87 78.4781 966.23 90.4777 959.41 100.684C952.59 110.891 942.897 118.846 931.556 123.543C920.215 128.241 907.736 129.47 895.697 127.075C883.657 124.68 872.598 118.769 863.918 110.089C855.238 101.409 849.327 90.3505 846.932 78.311C844.538 66.2716 845.767 53.7924 850.464 42.4515C855.162 31.1106 863.117 21.4173 873.323 14.5975C883.53 7.77775 895.529 4.1377 907.805 4.1377L907.805 66.2027H969.87Z" stroke="#FF8C4B" stroke-width="8" mask="url(#path-22-inside-2_189_24)"/>
</svg>
