<svg width="40" height="41" viewBox="0 0 40 41" fill="none" xmlns="http://www.w3.org/2000/svg">
<path d="M8.04445 17.7439C11.2444 24.19 16.4 29.4744 22.6889 32.7544L27.5778 27.7433C28.2 27.1056 29.0667 26.9233 29.8444 27.1739C32.3333 28.0167 35 28.4722 37.7778 28.4722C38.3671 28.4722 38.9324 28.7122 39.3491 29.1394C39.7659 29.5665 40 30.1459 40 30.75V38.7222C40 39.3263 39.7659 39.9057 39.3491 40.3329C38.9324 40.76 38.3671 41 37.7778 41C27.7585 41 18.1496 36.9203 11.0649 29.6585C3.98015 22.3967 0 12.5475 0 2.27778C0 1.67367 0.234126 1.09431 0.650874 0.667146C1.06762 0.239979 1.63285 0 2.22222 0H10C10.5894 0 11.1546 0.239979 11.5713 0.667146C11.9881 1.09431 12.2222 1.67367 12.2222 2.27778C12.2222 5.125 12.6667 7.85833 13.4889 10.4094C13.7333 11.2067 13.5556 12.095 12.9333 12.7328L8.04445 17.7439Z" fill="white"/>
</svg>
