<svg width="1071" height="49" viewBox="0 0 1071 49" fill="none" xmlns="http://www.w3.org/2000/svg">
<path d="M0 0H1071L1027 17L1071 49H0L29.5 32.5L0 0Z" fill="#F2BD3B"/>
<path d="M484.108 34.88C481.868 34.24 480.138 32.99 478.918 31.13C477.718 29.27 477.118 27.13 477.118 24.71C477.118 22.71 477.538 20.91 478.378 19.31C479.218 17.69 480.398 16.42 481.918 15.5C483.438 14.58 485.178 14.12 487.138 14.12C489.118 14.12 490.868 14.59 492.388 15.53C493.928 16.45 495.118 17.72 495.958 19.34C496.798 20.96 497.218 22.76 497.218 24.74C497.218 26.74 496.788 28.54 495.928 30.14C495.088 31.74 493.898 33 492.358 33.92C490.838 34.82 489.098 35.27 487.138 35.27H486.508L485.188 37.22L487.078 37.85C488.218 38.23 489.258 38.42 490.198 38.42C490.678 38.42 491.118 38.34 491.518 38.18C491.918 38.04 492.448 37.73 493.108 37.25L494.188 39.14C493.348 39.76 492.658 40.16 492.118 40.34C491.598 40.54 491.018 40.64 490.378 40.64C489.698 40.64 489.058 40.59 488.458 40.49C487.858 40.39 487.208 40.22 486.508 39.98L483.868 39.11L482.578 40.97L480.778 39.56L484.108 34.88ZM487.138 33.05C488.698 33.05 490.048 32.69 491.188 31.97C492.348 31.25 493.228 30.26 493.828 29C494.448 27.72 494.758 26.28 494.758 24.68C494.758 23.1 494.448 21.68 493.828 20.42C493.208 19.14 492.328 18.14 491.188 17.42C490.048 16.7 488.708 16.34 487.168 16.34C485.628 16.34 484.278 16.7 483.118 17.42C481.978 18.14 481.098 19.13 480.478 20.39C479.878 21.65 479.578 23.08 479.578 24.68C479.578 26.28 479.878 27.71 480.478 28.97C481.078 30.23 481.948 31.23 483.088 31.97C484.228 32.69 485.578 33.05 487.138 33.05ZM506.228 35.24C504.528 35.24 503.198 34.8 502.238 33.92C501.278 33.02 500.798 31.77 500.798 30.17V20.03H503.258L503.288 29.87C503.288 30.87 503.518 31.65 503.978 32.21C504.458 32.75 505.238 33.02 506.318 33.02C507.218 33.02 507.978 32.8 508.598 32.36C509.238 31.9 509.908 31.18 510.608 30.2V20H513.068V30.38C513.068 31.94 513.508 33.09 514.388 33.83L512.828 35.3C512.428 35.06 512.058 34.71 511.718 34.25C511.378 33.79 511.118 33.32 510.938 32.84C510.498 33.64 509.838 34.24 508.958 34.64C508.098 35.04 507.188 35.24 506.228 35.24ZM517.857 19.97L520.317 20V35.03L517.857 35V19.97ZM519.027 17.06C518.627 17.06 518.267 16.9 517.947 16.58C517.627 16.26 517.467 15.9 517.467 15.5C517.467 15.08 517.627 14.71 517.947 14.39C518.267 14.07 518.627 13.91 519.027 13.91C519.447 13.91 519.817 14.07 520.137 14.39C520.477 14.71 520.647 15.08 520.647 15.5C520.647 15.9 520.477 16.26 520.137 16.58C519.817 16.9 519.447 17.06 519.027 17.06ZM523.267 34.49L531.607 22.25H524.497V19.94H535.507V20.84L527.407 32.66H535.507V34.97L523.267 35V34.49ZM537.153 34.49L545.493 22.25H538.383V19.94H549.393V20.84L541.293 32.66H549.393V34.97L537.153 35V34.49ZM554.453 28.37C554.513 29.61 554.843 30.71 555.443 31.67C556.063 32.63 557.193 33.11 558.833 33.11C559.693 33.11 560.493 32.98 561.233 32.72C561.973 32.44 562.753 32.02 563.573 31.46L564.713 33.32C563.973 33.92 563.063 34.41 561.983 34.79C560.903 35.15 559.813 35.33 558.713 35.33C557.313 35.33 556.103 35.01 555.083 34.37C554.063 33.71 553.283 32.82 552.743 31.7C552.203 30.56 551.933 29.27 551.933 27.83C551.933 26.39 552.193 25.03 552.713 23.75C553.253 22.47 554.033 21.44 555.053 20.66C556.093 19.88 557.323 19.49 558.743 19.49C559.903 19.49 560.963 19.77 561.923 20.33C562.883 20.89 563.643 21.67 564.203 22.67C564.763 23.65 565.043 24.74 565.043 25.94C565.043 26.44 565.003 27.25 564.923 28.37H554.453ZM562.613 26.15V25.85C562.613 25.07 562.433 24.37 562.073 23.75C561.733 23.11 561.263 22.61 560.663 22.25C560.083 21.89 559.433 21.71 558.713 21.71C557.693 21.71 556.803 22.09 556.043 22.85C555.303 23.61 554.813 24.71 554.573 26.15H562.613ZM573.068 35.3C570.868 35.3 568.928 34.46 567.248 32.78L568.658 31.13C569.418 31.79 570.138 32.28 570.818 32.6C571.498 32.9 572.218 33.05 572.978 33.05C573.958 33.05 574.728 32.84 575.288 32.42C575.868 31.98 576.158 31.38 576.158 30.62C576.158 30.16 576.038 29.79 575.798 29.51C575.578 29.23 575.248 28.99 574.808 28.79C574.388 28.57 573.678 28.26 572.678 27.86C571.578 27.42 570.718 27.04 570.098 26.72C569.498 26.38 569.018 25.96 568.658 25.46C568.298 24.94 568.118 24.3 568.118 23.54C568.118 22.3 568.558 21.3 569.438 20.54C570.318 19.78 571.458 19.4 572.858 19.4C573.678 19.4 574.498 19.54 575.318 19.82C576.158 20.08 576.818 20.42 577.298 20.84L576.248 22.61C575.348 21.95 574.298 21.62 573.098 21.62C572.338 21.62 571.728 21.78 571.268 22.1C570.828 22.4 570.608 22.82 570.608 23.36C570.608 23.92 570.828 24.36 571.268 24.68C571.728 24.98 572.508 25.35 573.608 25.79C574.848 26.29 575.818 26.74 576.518 27.14C577.218 27.54 577.748 28.01 578.108 28.55C578.468 29.07 578.648 29.73 578.648 30.53C578.648 31.95 578.128 33.1 577.088 33.98C576.048 34.86 574.708 35.3 573.068 35.3Z" fill="white"/>
</svg>
