<svg width="51" height="35" viewBox="0 0 51 35" fill="none" xmlns="http://www.w3.org/2000/svg">
<path d="M18.5455 0H32.4545L25.5 7L18.5455 0ZM22.0227 22.54C21.3273 23.3333 20.8636 24.5 20.8636 25.6667C20.8636 26.9043 21.3521 28.0913 22.2216 28.9665C23.0911 29.8417 24.2704 30.3333 25.5 30.3333C26.7296 30.3333 27.9089 29.8417 28.7784 28.9665C29.6479 28.0913 30.1364 26.9043 30.1364 25.6667C30.1364 24.3833 29.6264 23.2167 28.7686 22.3767L32.0605 19.0633C33.7295 20.7667 34.7727 23.1 34.7727 25.6667C34.7727 28.142 33.7958 30.516 32.0568 32.2663C30.3178 34.0167 27.9593 35 25.5 35C23.0407 35 20.6822 34.0167 18.9432 32.2663C17.2042 30.516 16.2273 28.142 16.2273 25.6667C16.2273 23.17 17.2009 20.9067 18.7773 19.25L18.7541 19.2267L35.1668 2.73C36.8359 1.05 39.1541 0 41.7273 0C44.1866 0 46.5451 0.98333 48.2841 2.73367C50.0231 4.48401 51 6.85798 51 9.33333C51 11.8087 50.0231 14.1827 48.2841 15.933C46.5451 17.6833 44.1866 18.6667 41.7273 18.6667C39.1773 18.6667 36.8591 17.6167 35.1668 15.9367L38.4586 12.6233C39.2932 13.4867 40.4523 14 41.7273 14C42.9569 14 44.1362 13.5083 45.0057 12.6332C45.8752 11.758 46.3636 10.571 46.3636 9.33333C46.3636 8.09566 45.8752 6.90867 45.0057 6.0335C44.1362 5.15833 42.9569 4.66667 41.7273 4.66667C40.4523 4.66667 39.2932 5.18 38.4586 6.04333L22.0227 22.54ZM12.5414 6.04333C11.7068 5.18 10.5477 4.66667 9.27273 4.66667C8.04309 4.66667 6.86381 5.15833 5.99432 6.0335C5.12484 6.90867 4.63636 8.09566 4.63636 9.33333C4.63636 10.571 5.12484 11.758 5.99432 12.6332C6.86381 13.5083 8.04309 14 9.27273 14C10.5477 14 11.7068 13.4867 12.5414 12.6233L15.8332 15.9367C14.1409 17.6167 11.8227 18.6667 9.27273 18.6667C6.81345 18.6667 4.45489 17.6833 2.71592 15.933C0.976945 14.1827 0 11.8087 0 9.33333C0 6.85798 0.976945 4.48401 2.71592 2.73367C4.45489 0.98333 6.81345 0 9.27273 0C11.8459 0 14.1641 1.05 15.8332 2.73L22.2314 9.17L18.9395 12.4833L12.5414 6.04333Z" fill="white"/>
</svg>
