<svg width="32" height="32" viewBox="0 0 32 32" fill="none" xmlns="http://www.w3.org/2000/svg">
<path d="M27.925 26.2031L19.8094 18.0875C21.0688 16.4594 21.75 14.4688 21.75 12.375C21.75 9.86875 20.7719 7.51875 19.0031 5.74688C17.2344 3.975 14.8781 3 12.375 3C9.87188 3 7.51563 3.97812 5.74688 5.74688C3.975 7.51563 3 9.86875 3 12.375C3 14.8781 3.97812 17.2344 5.74688 19.0031C7.51563 20.775 9.86875 21.75 12.375 21.75C14.4688 21.75 16.4563 21.0688 18.0844 19.8125L26.2 27.925C26.2238 27.9488 26.2521 27.9677 26.2832 27.9806C26.3143 27.9935 26.3476 28.0001 26.3813 28.0001C26.4149 28.0001 26.4482 27.9935 26.4793 27.9806C26.5105 27.9677 26.5387 27.9488 26.5625 27.925L27.925 26.5656C27.9488 26.5418 27.9677 26.5136 27.9806 26.4825C27.9935 26.4514 28.0001 26.418 28.0001 26.3844C28.0001 26.3507 27.9935 26.3174 27.9806 26.2863C27.9677 26.2552 27.9488 26.2269 27.925 26.2031ZM17.325 17.325C16 18.6469 14.2438 19.375 12.375 19.375C10.5063 19.375 8.75 18.6469 7.425 17.325C6.10313 16 5.375 14.2438 5.375 12.375C5.375 10.5063 6.10313 8.74688 7.425 7.425C8.75 6.10313 10.5063 5.375 12.375 5.375C14.2438 5.375 16.0031 6.1 17.325 7.425C18.6469 8.75 19.375 10.5063 19.375 12.375C19.375 14.2438 18.6469 16.0031 17.325 17.325Z" fill="#323356"/>
</svg>
