<svg width="692" height="84" viewBox="0 0 692 84" fill="none" xmlns="http://www.w3.org/2000/svg">
<path d="M43.5003 0L49.1831 27.566L71.4615 10.0601L57.8897 34.7877L86.3394 35.5331L59.8634 45.8521L81.1724 64.5L54.1805 55.5819L58.3781 83.4068L43.5003 59.4245L28.6224 83.4068L32.82 55.5819L5.82817 64.5L27.1372 45.8521L0.661133 35.5331L29.1108 34.7877L15.539 10.0601L37.8174 27.566L43.5003 0Z" fill="#FF8C4B"/>
<path d="M389.5 0L395.183 27.566L417.462 10.0601L403.89 34.7877L432.339 35.5331L405.863 45.8521L427.172 64.5L400.181 55.5819L404.378 83.4068L389.5 59.4245L374.622 83.4068L378.82 55.5819L351.828 64.5L373.137 45.8521L346.661 35.5331L375.111 34.7877L361.539 10.0601L383.817 27.566L389.5 0Z" fill="#FA5691"/>
<path d="M130 0L135.618 27.566L157.64 10.0601L144.224 34.7877L172.347 35.5331L146.175 45.8521L167.239 64.5L140.558 55.5819L144.707 83.4068L130 59.4245L115.293 83.4068L119.443 55.5819L92.7612 64.5L113.825 45.8521L87.6535 35.5331L115.776 34.7877L102.36 10.0601L124.383 27.566L130 0Z" fill="#90F16E"/>
<path d="M476 0L481.618 27.566L503.64 10.0601L490.224 34.7877L518.347 35.5331L492.175 45.8521L513.239 64.5L486.558 55.5819L490.707 83.4068L476 59.4245L461.293 83.4068L465.443 55.5819L438.761 64.5L459.825 45.8521L433.654 35.5331L461.776 34.7877L448.36 10.0601L470.383 27.566L476 0Z" fill="#FF7C1E"/>
<path d="M216.5 0L222.183 27.566L244.462 10.0601L230.89 34.7877L259.339 35.5331L232.863 45.8521L254.172 64.5L227.181 55.5819L231.378 83.4068L216.5 59.4245L201.622 83.4068L205.82 55.5819L178.828 64.5L200.137 45.8521L173.661 35.5331L202.111 34.7877L188.539 10.0601L210.817 27.566L216.5 0Z" fill="#7E53FB"/>
<path d="M562.5 0L568.183 27.566L590.462 10.0601L576.89 34.7877L605.339 35.5331L578.863 45.8521L600.172 64.5L573.181 55.5819L577.378 83.4068L562.5 59.4245L547.622 83.4068L551.82 55.5819L524.828 64.5L546.137 45.8521L519.661 35.5331L548.111 34.7877L534.539 10.0601L556.817 27.566L562.5 0Z" fill="#3748E0"/>
<path d="M303 0L308.618 27.566L330.64 10.0601L317.224 34.7877L345.347 35.5331L319.175 45.8521L340.239 64.5L313.558 55.5819L317.707 83.4068L303 59.4245L288.293 83.4068L292.443 55.5819L265.761 64.5L286.825 45.8521L260.654 35.5331L288.776 34.7877L275.36 10.0601L297.383 27.566L303 0Z" fill="#548EFF"/>
<path d="M649 0L654.618 27.566L676.64 10.0601L663.224 34.7877L691.347 35.5331L665.175 45.8521L686.239 64.5L659.558 55.5819L663.707 83.4068L649 59.4245L634.293 83.4068L638.443 55.5819L611.761 64.5L632.825 45.8521L606.654 35.5331L634.776 34.7877L621.36 10.0601L643.383 27.566L649 0Z" fill="#FFE76B"/>
</svg>
